<svg xmlns="http://www.w3.org/2000/svg" xmlns:xlink="http://www.w3.org/1999/xlink" xmlns:fi="http://pattern.flaticon.com/" x="0" y="0" width="1920" height="960" viewBox="0 0 1920 960"><rect x="0px" y="0px" width="100%" height="100%" opacity="0" fill="#ffffff"/><defs><path d="M102.763,53.369a1.253,1.253,0,0,0-1.312-.794l-3.035.355A36.235,36.235,0,0,0,79.823,31.481a1.25,1.25,0,0,0-1.1,2.247,33.741,33.741,0,0,1,17.16,19.5L81.834,54.867a20.167,20.167,0,0,0-8.7-8.7l2.293-19.617a1.25,1.25,0,0,0-.794-1.312,29.566,29.566,0,0,0-21.263,0,1.25,1.25,0,0,0-.794,1.313l.355,3.035A36.14,36.14,0,0,0,31.155,48.866a1.25,1.25,0,1,0,2.27,1.048,33.651,33.651,0,0,1,19.8-17.8l1.643,14.053a20.168,20.168,0,0,0-8.7,8.7L26.549,52.574a1.248,1.248,0,0,0-1.312.794,29.433,29.433,0,0,0,0,21.262,1.25,1.25,0,0,0,1.166.8,1.215,1.215,0,0,0,.145-.009l3.035-.355A36.165,36.165,0,0,0,48.7,96.767a1.25,1.25,0,1,0,1.06-2.264A33.676,33.676,0,0,1,32.113,74.775l14.053-1.643a20.167,20.167,0,0,0,8.7,8.7L52.574,101.45a1.249,1.249,0,0,0,.794,1.313,29.43,29.43,0,0,0,21.263,0,1.249,1.249,0,0,0,.794-1.312l-.355-3.034A36.215,36.215,0,0,0,96.6,79.654a1.25,1.25,0,1,0-2.253-1.084A33.718,33.718,0,0,1,74.776,95.888L73.133,81.834a20.167,20.167,0,0,0,8.7-8.7l19.617,2.293a1.215,1.215,0,0,0,.145.009,1.25,1.25,0,0,0,1.166-.8,29.433,29.433,0,0,0,0-21.262ZM55.172,27.241a26.987,26.987,0,0,1,17.655,0L70.736,45.133a19.679,19.679,0,0,0-13.472,0ZM27.241,72.827a26.881,26.881,0,0,1,0-17.655l17.893,2.091a19.678,19.678,0,0,0,0,13.472Zm45.587,27.932a26.974,26.974,0,0,1-17.655,0l2.091-17.892a19.678,19.678,0,0,0,13.472,0ZM64,81.556A17.556,17.556,0,1,1,81.556,64,17.575,17.575,0,0,1,64,81.556Zm36.759-8.729L82.867,70.736a19.679,19.679,0,0,0,0-13.472l17.892-2.091a26.881,26.881,0,0,1,0,17.655Z" transform="matrix(0.390625 0 0 0.390625 101.5 187)" id="L1_1" fill="#fff" opacity="0.1" /><g transform="matrix(0.40723074353979993 0.19004101286202385 -0.19004101286202385 0.40723074353979993 313.4639749173144 16.176707423754618)" id="L1_2"><path d="M99.37,23.25H62.611a5.5,5.5,0,0,0-5.492,5.491V51.929a5.5,5.5,0,0,0,5.492,5.491H65.7v9.307a1.25,1.25,0,0,0,2.186.828l5.253-5.938a1.25,1.25,0,1,0-1.873-1.656L68.2,63.427V56.17a1.25,1.25,0,0,0-1.25-1.25H62.611a3,3,0,0,1-2.992-2.991V28.741a3,3,0,0,1,2.992-2.991H99.37a3,3,0,0,1,2.991,2.991V51.929A3,3,0,0,1,99.37,54.92H76.285a1.25,1.25,0,0,0,0,2.5H99.37a5.5,5.5,0,0,0,5.491-5.491V28.741A5.5,5.5,0,0,0,99.37,23.25Z" fill="#fff" opacity="0.1" /><path d="M95.826,40.706a3.407,3.407,0,1,0-3.407,3.408A3.411,3.411,0,0,0,95.826,40.706Z" fill="#fff" opacity="0.1" /><path d="M84.4,40.706a3.408,3.408,0,1,0-3.408,3.408A3.412,3.412,0,0,0,84.4,40.706Z" fill="#fff" opacity="0.1" /><path d="M66.154,40.706A3.408,3.408,0,1,0,69.562,37.3,3.413,3.413,0,0,0,66.154,40.706Z" fill="#fff" opacity="0.1" /><path d="M53.708,78.417H51.732a13.3,13.3,0,1,0-15.465,0H34.291A11.555,11.555,0,0,0,22.75,89.958V103.5a1.25,1.25,0,0,0,2.5,0V89.958a9.052,9.052,0,0,1,9.041-9.041H53.708a9.052,9.052,0,0,1,9.042,9.041V103.5a1.25,1.25,0,0,0,2.5,0V89.958A11.555,11.555,0,0,0,53.708,78.417ZM33.2,67.617A10.8,10.8,0,1,1,44,78.417,10.812,10.812,0,0,1,33.2,67.617Z" fill="#fff" opacity="0.1" /></g><g transform="matrix(0.4483427462840634 0.0700535537291127 -0.0700535537291127 0.4483427462840634 143.589778257868 297.54842694960183)" id="L1_3"><path d="M76.771,57.4,50.1,84.073a1.248,1.248,0,0,0-.3,1.274,11.219,11.219,0,0,1-12.985,14.5l6.659-6.659a1.25,1.25,0,0,0,0-1.768l-6.882-6.881a1.25,1.25,0,0,0-1.768,0l-6.658,6.658a11.219,11.219,0,0,1,14.5-12.985,1.25,1.25,0,0,0,.781-2.375A13.719,13.719,0,0,0,26.417,94.012a1.25,1.25,0,0,0,2.043.415l7.24-7.241L40.814,92.3,33.573,99.54a1.25,1.25,0,0,0,.415,2.042,13.718,13.718,0,0,0,18.4-16.269l26.149-26.15A1.25,1.25,0,1,0,76.771,57.4Z" fill="#fff" opacity="0.1" /><path d="M101.45,35.128a1.25,1.25,0,0,0-2.043-.415l-8.429,8.429-6.12-6.12,8.429-8.429a1.25,1.25,0,0,0-.415-2.043A15.553,15.553,0,0,0,72.315,45.981L46.481,71.815a1.25,1.25,0,1,0,1.768,1.768l26.4-26.4a1.249,1.249,0,0,0,.276-1.35A13.053,13.053,0,0,1,90.073,28.272l-7.866,7.867a1.25,1.25,0,0,0,0,1.768l7.888,7.888a1.286,1.286,0,0,0,1.768,0l7.866-7.867A13.054,13.054,0,0,1,82.167,53.075a1.25,1.25,0,1,0-.932,2.32A15.554,15.554,0,0,0,101.45,35.128Z" fill="#fff" opacity="0.1" /></g><g transform="matrix(0.3472954667297368 -0.041675456160481655 0.041675456160481655 0.3472954667297368 264.82975740410166 277.41357642077446)"><path d="M98.825,35.969a1.25,1.25,0,0,0,1.25-1.25V31.514a8.273,8.273,0,0,0-8.264-8.264H36.189a8.273,8.273,0,0,0-8.264,8.264V87.136A8.273,8.273,0,0,0,36.189,95.4h.281v8.1a1.25,1.25,0,0,0,2.134.884L47.589,95.4H91.811a8.273,8.273,0,0,0,8.264-8.264V40.417a1.25,1.25,0,1,0-2.5,0V87.136A5.77,5.77,0,0,1,91.811,92.9H47.071a1.25,1.25,0,0,0-.884.366l-7.217,7.217V94.149a1.25,1.25,0,0,0-1.25-1.25H36.189a5.77,5.77,0,0,1-5.764-5.764V31.514a5.77,5.77,0,0,1,5.764-5.764H91.811a5.77,5.77,0,0,1,5.764,5.764v3.205A1.25,1.25,0,0,0,98.825,35.969Z" fill="#fff" opacity="0.1" /><path d="M55.177,73.281a3.243,3.243,0,0,0-3.24,3.239v4.772a3.243,3.243,0,0,0,3.24,3.239H72.823a3.243,3.243,0,0,0,3.24-3.239V76.521a3.243,3.243,0,0,0-3.24-3.239H68.375a1.25,1.25,0,0,0,0,2.5h4.448a.741.741,0,0,1,.74.739v4.772a.741.741,0,0,1-.74.739H55.177a.741.741,0,0,1-.74-.739V76.521a.741.741,0,0,1,.74-.739h4.448a1.25,1.25,0,0,0,1.25-1.25V58.7a1.25,1.25,0,0,0-1.25-1.25H56.177a.741.741,0,0,1-.74-.74v-4.77a.741.741,0,0,1,.74-.739H66.385a.741.741,0,0,1,.74.739V69.083a1.25,1.25,0,0,0,2.5,0V51.938a3.243,3.243,0,0,0-3.24-3.239H56.177a3.243,3.243,0,0,0-3.24,3.239v4.77a3.243,3.243,0,0,0,3.24,3.24h2.2V73.281Z" fill="#fff" opacity="0.1" /><path d="M69.063,39.906a6.438,6.438,0,1,0-6.437,6.438A6.445,6.445,0,0,0,69.063,39.906Zm-10.375,0a3.938,3.938,0,1,1,3.938,3.938A3.942,3.942,0,0,1,58.688,39.906Z" fill="#fff" opacity="0.1" /></g><g transform="matrix(0.3105270763339551 -0.2117230042195539 0.2117230042195539 0.3105270763339551 244.99257612029837 235.6179156462968)" id="L1_4"><path d="M30.625,82.917a1.25,1.25,0,0,0,1.25-1.25v-28.9a3.95,3.95,0,0,1,3.946-3.946H46.875V52A4.231,4.231,0,0,0,51.1,56.225h1.792v6.158a1.25,1.25,0,0,0,2.186.828l6.181-6.986H76.9A4.232,4.232,0,0,0,81.125,52V35.727A4.232,4.232,0,0,0,76.9,31.5H51.1a4.231,4.231,0,0,0-4.227,4.227v10.59H35.821a6.453,6.453,0,0,0-6.446,6.446v28.9A1.25,1.25,0,0,0,30.625,82.917Zm18.75-47.19A1.728,1.728,0,0,1,51.1,34H76.9a1.728,1.728,0,0,1,1.727,1.727V52A1.728,1.728,0,0,1,76.9,53.725H60.7a1.25,1.25,0,0,0-.936.422l-4.368,4.937V54.975a1.25,1.25,0,0,0-1.25-1.25H51.1A1.728,1.728,0,0,1,49.375,52Z" fill="#fff" opacity="0.1" /><path d="M102.5,85.75H98.625V52.763a6.453,6.453,0,0,0-6.446-6.446H84.833a1.25,1.25,0,0,0,0,2.5h7.346a3.951,3.951,0,0,1,3.946,3.946V85.75H25.5A1.25,1.25,0,0,0,24.25,87v.106a9.406,9.406,0,0,0,9.4,9.394h60.71a9.406,9.406,0,0,0,9.395-9.394V87A1.25,1.25,0,0,0,102.5,85.75ZM94.355,94H33.645a6.906,6.906,0,0,1-6.8-5.75h74.31A6.906,6.906,0,0,1,94.355,94Z" fill="#fff" opacity="0.1" /><path d="M68.562,89.875H59.437a1.25,1.25,0,0,0,0,2.5h9.125a1.25,1.25,0,0,0,0-2.5Z" fill="#fff" opacity="0.1" /></g><g transform="matrix(0.46875 0 0 0.46875 205.99999974250795 106.0000005435943)" id="L1_5"><path d="M99.016,48.788H60.149a5.741,5.741,0,0,0-5.734,5.734V61.35H41.066a1.25,1.25,0,0,0-.936.422l-6.449,7.29V62.6a1.25,1.25,0,0,0-1.25-1.25H28.422a2.675,2.675,0,0,1-2.672-2.672V37.238a2.675,2.675,0,0,1,2.672-2.672h33.99a2.675,2.675,0,0,1,2.672,2.672v7.1a1.25,1.25,0,0,0,2.5,0v-7.1a5.178,5.178,0,0,0-5.172-5.172H28.422a5.178,5.178,0,0,0-5.172,5.172V58.678a5.178,5.178,0,0,0,5.172,5.172h2.759v8.511a1.25,1.25,0,0,0,2.186.828l8.262-9.339H54.415V79.038a5.741,5.741,0,0,0,5.734,5.735H84.558a1.25,1.25,0,0,0,0-2.5H60.149a3.238,3.238,0,0,1-3.234-3.235V54.522a3.238,3.238,0,0,1,3.234-3.234H99.016a3.238,3.238,0,0,1,3.234,3.234V79.038a3.238,3.238,0,0,1-3.234,3.235H94.431a1.25,1.25,0,0,0-1.25,1.25v7.861L90.006,87.8a1.25,1.25,0,1,0-1.872,1.656l5.361,6.06a1.25,1.25,0,0,0,2.186-.828V84.773h3.334a5.741,5.741,0,0,0,5.734-5.735V54.522A5.741,5.741,0,0,0,99.016,48.788Z" fill="#fff" opacity="0.1" /><path d="M71.163 71.057 71.163 62.467 69.428 62.467 69.428 65.848 66.03 65.848 66.03 62.467 64.295 62.467 64.295 71.057 66.03 71.057 66.03 67.301 69.428 67.301 69.428 71.057 71.163 71.057z" fill="#fff" opacity="0.1" /><path d="M79.325 63.92 79.325 62.467 72.956 62.467 72.956 71.057 79.489 71.057 79.489 69.61 74.69 69.61 74.69 67.272 79.002 67.272 79.002 65.825 74.69 65.825 74.69 63.92 79.325 63.92z" fill="#fff" opacity="0.1" /><path d="M82.741 62.538 81.006 62.538 81.006 71.057 87.053 71.057 87.053 69.61 82.741 69.61 82.741 62.538z" fill="#fff" opacity="0.1" /><path d="M90.024,67.817h1.131a9.893,9.893,0,0,0,1.8-.123,2.513,2.513,0,0,0,.9-.407,2.355,2.355,0,0,0,.73-.847,2.8,2.8,0,0,0,.287-1.33,2.667,2.667,0,0,0-.5-1.673,2.252,2.252,0,0,0-1.236-.841,10.1,10.1,0,0,0-2.062-.129H88.29v8.59h1.734Zm0-3.9h.838a8.332,8.332,0,0,1,1.248.059,1.2,1.2,0,0,1,.7.381,1.109,1.109,0,0,1,.275.773,1.154,1.154,0,0,1-.2.668,1.138,1.138,0,0,1-.542.422,4.482,4.482,0,0,1-1.371.135h-.949Z" fill="#fff" opacity="0.1" /></g><g transform="matrix(0.34186091525476975 0.0707298446986166 -0.0707298446986166 0.34186091525476975 103.99318804794277 48.14030951821343)" id="L1_6"><path d="M87.869,35.486a1.25,1.25,0,0,0-1.7,1.834A32.727,32.727,0,0,1,96.62,61.249V74.89A4.113,4.113,0,0,1,93.748,78.8V75.968a8.739,8.739,0,0,0-8.729-8.73h-.761a4.246,4.246,0,0,0-8.33,1.173v23.7a4.246,4.246,0,0,0,8.33,1.173h.761a8.716,8.716,0,0,0,1.071-.073,8.153,8.153,0,0,1-7.98,6.538H69.353a3.744,3.744,0,0,0-3.52-2.5H62.166a3.75,3.75,0,0,0,0,7.5h3.667a3.744,3.744,0,0,0,3.52-2.5h8.756a10.649,10.649,0,0,0,10.6-9.795,8.733,8.733,0,0,0,5.041-7.9V81.389a6.629,6.629,0,0,0,5.372-6.5V61.249A35.236,35.236,0,0,0,87.869,35.486ZM65.833,102.25H62.166a1.25,1.25,0,0,1,0-2.5h3.667a1.25,1.25,0,0,1,0,2.5Zm25.415-17.7a6.237,6.237,0,0,1-6.229,6.23h-.576v-2.7a1.25,1.25,0,1,0-2.5,0v4.028a1.757,1.757,0,0,1-3.515,0v-23.7a1.757,1.757,0,0,1,3.515,0V82.667a1.25,1.25,0,1,0,2.5,0V69.738h.576a6.237,6.237,0,0,1,6.229,6.23Z" fill="#fff" opacity="0.1" /><path d="M48.089,64.154a4.262,4.262,0,0,0-4.258,4.257V90.784h-.576a6.237,6.237,0,0,1-6.229-6.23V75.968a6.222,6.222,0,0,1,3.805-5.74,1.25,1.25,0,1,0-.974-2.3,8.718,8.718,0,0,0-5.331,8.043v2.913A4.12,4.12,0,0,1,31.38,74.89V61.249a32.581,32.581,0,0,1,13.594-26.48,4.11,4.11,0,0,0,4.638.444A29.794,29.794,0,0,1,78.174,35.1a4.129,4.129,0,1,0,3.941-7.256,38.05,38.05,0,0,0-36.5.149,4.09,4.09,0,0,0-1.978,4.666A35.076,35.076,0,0,0,28.88,61.249V74.89a6.626,6.626,0,0,0,5.646,6.541v3.124a8.739,8.739,0,0,0,8.729,8.73h.761a4.246,4.246,0,0,0,8.33-1.173v-23.7A4.262,4.262,0,0,0,48.089,64.154Zm-2.042-33a1.615,1.615,0,0,1,.776-.976,35.551,35.551,0,0,1,34.1-.14A1.629,1.629,0,1,1,79.367,32.9a32.293,32.293,0,0,0-30.965.127,1.661,1.661,0,0,1-2.214-.636A1.617,1.617,0,0,1,46.046,31.151Zm3.8,60.96a1.758,1.758,0,0,1-3.515,0v-23.7a1.758,1.758,0,0,1,3.515,0Z" fill="#fff" opacity="0.1" /></g></defs><g fi:class="KUsePattern"><pattern id="pattern_L1_2" width="350" height="350" patternUnits="userSpaceOnUse"><use xlink:href="#L1_2" x="-350" y="-350"/><use xlink:href="#L1_2" x="0" y="-350"/><use xlink:href="#L1_2" x="350" y="-350"/><use xlink:href="#L1_2" x="-350" y="0"/><use xlink:href="#L1_2" x="0" y="0"/><use xlink:href="#L1_2" x="350" y="0"/><use xlink:href="#L1_2" x="-350" y="350"/><use xlink:href="#L1_2" x="0" y="350"/><use xlink:href="#L1_2" x="350" y="350"/></pattern><rect x="0" y="0" width="100%" height="100%" fill="url(#pattern_L1_2)"/></g><g fi:class="KUsePattern"><pattern id="pattern_L1_1" width="350" height="350" patternUnits="userSpaceOnUse"><use xlink:href="#L1_1" x="-350" y="-350"/><use xlink:href="#L1_1" x="0" y="-350"/><use xlink:href="#L1_1" x="350" y="-350"/><use xlink:href="#L1_1" x="-350" y="0"/><use xlink:href="#L1_1" x="0" y="0"/><use xlink:href="#L1_1" x="350" y="0"/><use xlink:href="#L1_1" x="-350" y="350"/><use xlink:href="#L1_1" x="0" y="350"/><use xlink:href="#L1_1" x="350" y="350"/></pattern><rect x="0" y="0" width="100%" height="100%" fill="url(#pattern_L1_1)"/></g><g fi:class="KUsePattern" transform="matrix(1 0 0 1 20 20)"><pattern id="pattern_UNKNOWN" width="350" height="350" patternUnits="userSpaceOnUse"><use xlink:href="#UNKNOWN" x="-350" y="-350"/><use xlink:href="#UNKNOWN" x="0" y="-350"/><use xlink:href="#UNKNOWN" x="350" y="-350"/><use xlink:href="#UNKNOWN" x="-350" y="0"/><use xlink:href="#UNKNOWN" x="0" y="0"/><use xlink:href="#UNKNOWN" x="350" y="0"/><use xlink:href="#UNKNOWN" x="-350" y="350"/><use xlink:href="#UNKNOWN" x="0" y="350"/><use xlink:href="#UNKNOWN" x="350" y="350"/></pattern><rect x="0" y="0" width="100%" height="100%" fill="url(#pattern_UNKNOWN)"/></g><g fi:class="KUsePattern"><pattern id="pattern_L1_3" width="350" height="350" patternUnits="userSpaceOnUse"><use xlink:href="#L1_3" x="-350" y="-350"/><use xlink:href="#L1_3" x="0" y="-350"/><use xlink:href="#L1_3" x="350" y="-350"/><use xlink:href="#L1_3" x="-350" y="0"/><use xlink:href="#L1_3" x="0" y="0"/><use xlink:href="#L1_3" x="350" y="0"/><use xlink:href="#L1_3" x="-350" y="350"/><use xlink:href="#L1_3" x="0" y="350"/><use xlink:href="#L1_3" x="350" y="350"/></pattern><rect x="0" y="0" width="100%" height="100%" fill="url(#pattern_L1_3)"/></g><g fi:class="KUsePattern"><pattern id="pattern_L1_4" width="350" height="350" patternUnits="userSpaceOnUse"><use xlink:href="#L1_4" x="-350" y="-350"/><use xlink:href="#L1_4" x="0" y="-350"/><use xlink:href="#L1_4" x="350" y="-350"/><use xlink:href="#L1_4" x="-350" y="0"/><use xlink:href="#L1_4" x="0" y="0"/><use xlink:href="#L1_4" x="350" y="0"/><use xlink:href="#L1_4" x="-350" y="350"/><use xlink:href="#L1_4" x="0" y="350"/><use xlink:href="#L1_4" x="350" y="350"/></pattern><rect x="0" y="0" width="100%" height="100%" fill="url(#pattern_L1_4)"/></g><g fi:class="KUsePattern"><pattern id="pattern_L1_5" width="350" height="350" patternUnits="userSpaceOnUse"><use xlink:href="#L1_5" x="-350" y="-350"/><use xlink:href="#L1_5" x="0" y="-350"/><use xlink:href="#L1_5" x="350" y="-350"/><use xlink:href="#L1_5" x="-350" y="0"/><use xlink:href="#L1_5" x="0" y="0"/><use xlink:href="#L1_5" x="350" y="0"/><use xlink:href="#L1_5" x="-350" y="350"/><use xlink:href="#L1_5" x="0" y="350"/><use xlink:href="#L1_5" x="350" y="350"/></pattern><rect x="0" y="0" width="100%" height="100%" fill="url(#pattern_L1_5)"/></g><g fi:class="KUsePattern"><pattern id="pattern_L1_6" width="350" height="350" patternUnits="userSpaceOnUse"><use xlink:href="#L1_6" x="-350" y="-350"/><use xlink:href="#L1_6" x="0" y="-350"/><use xlink:href="#L1_6" x="350" y="-350"/><use xlink:href="#L1_6" x="-350" y="0"/><use xlink:href="#L1_6" x="0" y="0"/><use xlink:href="#L1_6" x="350" y="0"/><use xlink:href="#L1_6" x="-350" y="350"/><use xlink:href="#L1_6" x="0" y="350"/><use xlink:href="#L1_6" x="350" y="350"/></pattern><rect x="0" y="0" width="100%" height="100%" fill="url(#pattern_L1_6)"/></g></svg>